<svg height="511pt" viewBox="0 0 511 511.99992" width="511pt" xmlns="http://www.w3.org/2000/svg"><path d="m177.105469 267.988281 180.964843-201.523437s73.691407-91.78125 146.25-59.636719c5.5 2.4375 8.03125 8.847656 5.84375 14.453125-11.789062 30.183594-57.507812 130.910156-194.6875 295.160156-3.523437 4.214844-9.550781 5.335938-14.34375 2.640625l-57-32.058593c-3.902343-2.195313-8.808593-1.386719-11.804687 1.945312l-14.222656 15.839844zm0 0" fill="#bfbfbf"/><path d="m315.46875 316.441406c-3.519531 4.214844-9.546875 5.332032-14.332031 2.632813l-10.253907-5.761719c141.703126-170.792969 190.492188-276.460938 203.796876-310.03125 3.222656.9375 6.429687 2.125 9.648437 3.546875 5.496094 2.433594 8.03125 8.847656 5.832031 14.460937-11.78125 30.175782-57.503906 130.898438-194.691406 295.152344zm0 0" fill="#acacac"/><path d="m240.078125 311.167969-56.328125-50.589844-40.640625 45.253906-133.589844 148.769531c-12.484375 13.902344-12.0625 35.476563 1.605469 48.222657 16.207031 15.113281 42.1875 10.996093 52.976562-8.226563l3.628907-6.46875c10.878906-19.378906 24.753906-36.914062 41.113281-51.957031l10.875-9.996094c16.699219-15.355469 30.8125-33.308593 41.785156-53.164062l12.269532-22.199219c4.238281-7.671875 10.167968-14.277344 17.332031-19.324219 8.777343-6.179687 20.410156-7.457031 29.871093-2.386719 4.925782 2.640626 11.003907 1.566407 14.726563-2.582031l4.90625-5.464843c2.585937-2.875 2.347656-7.300782-.53125-9.886719zm0 0" fill="#bc7d53"/><path d="m240.082031 311.175781-6.25-5.613281c.921875.867188-3.203125 4.457031-3.867187 4.941406-5.757813 4.171875-14.164063 2.832032-20.476563 1.105469-7.121093-1.949219-15.308593-1.269531-22.199219 1.269531-4.515624 1.667969-8.363281 4.199219-11.6875 7.636719-.183593.195313-1.058593 1.105469-2.144531 2.242187-3.609375 3.765626-6.71875 7.988282-9.242187 12.554688l-14.824219 26.816406c-10.96875 19.863282-25.082031 37.820313-41.785156 53.171875l-10.875 9.996094c-16.351563 15.042969-30.230469 32.574219-41.105469 51.957031l-3.628906 6.46875c-1.277344 2.261719-2.742188 4.3125-4.390625 6.144532-10.4375 11.625-27.65625 14.601562-41.367188 7.238281 1.496094 2.230469 3.292969 4.296875 5.378907 6.167969 14.300781 12.839843 35.859374 11.089843 48.085937-2.527344 1.644531-1.832032 3.128906-3.886719 4.398437-6.15625l3.636719-6.460938c10.875-19.378906 24.746094-36.917968 41.105469-51.957031l10.875-9.992187c16.691406-15.359376 30.816406-33.3125 41.785156-53.171876l12.007813-21.722656c4.414062-7.984375 10.578125-14.859375 18.035156-20.113281 8.71875-6.128906 20.121094-6.902344 29.574219-1.988281 4.894531 2.53125 10.902344 1.4375 14.589844-2.667969l4.902343-5.457031c2.582031-2.875 2.34375-7.300782-.53125-9.882813zm0 0" fill="#af663e"/><g fill="#704138"><path d="m117.605469 392.953125c0 5.898437-4.78125 10.679687-10.679688 10.679687-5.898437 0-10.679687-4.78125-10.679687-10.679687 0-5.894531 4.78125-10.675781 10.679687-10.675781 5.898438 0 10.679688 4.78125 10.679688 10.675781zm0 0"/><path d="m57.425781 459.96875c0 5.898438-4.78125 10.679688-10.679687 10.679688-5.894532 0-10.675782-4.78125-10.675782-10.679688s4.78125-10.679688 10.675782-10.679688c5.898437 0 10.679687 4.78125 10.679687 10.679688zm0 0"/></g></svg>