<?xml version="1.0" ?><svg id="Layer_1" style="enable-background:new 0 0 128 128;" version="1.1" viewBox="0 0 128 128" xml:space="preserve" xmlns="http://www.w3.org/2000/svg" xmlns:xlink="http://www.w3.org/1999/xlink"><style type="text/css">
	.st0{display:none;fill:#D6D5BD;}
	.st1{fill:#FFFFFF;}
	.st2{fill:#E4E8ED;}
	.st3{fill:#444B54;}
	.st4{fill:#FE4365;}
	.st5{fill:#5BF979;}
	.st6{fill:#006475;}
	.st7{fill:#00B1FE;}
	.st8{opacity:0.5;}
	.st9{fill:#FFB480;}
	.st10{fill:#FF8B80;}
	.st11{fill:#70F0FF;}
	.st12{fill:#00BED9;}
	.st13{fill:#FF2A66;}
	.st14{fill:#A3B859;}
	.st15{fill:#64AD50;}
	.st16{fill:#FF5366;}
	.st17{fill:#BBB798;}
	.st18{fill:#79B9AF;}
	.st19{fill:#39BCC5;}
</style><g><g><circle class="st9" cx="64" cy="63" r="60"/></g><g><path class="st1" d="M34.7,24.9c-0.9,0-1.9-0.4-2.5-1.3c-0.9-1.4-0.6-3.2,0.7-4.2c9.1-6.4,19.9-9.8,31-9.8c1.7,0,3,1.3,3,3    s-1.3,3-3,3c-9.9,0-19.5,3-27.6,8.7C35.9,24.7,35.3,24.9,34.7,24.9z"/></g><g><path class="st1" d="M22.3,37.1c-0.6,0-1.2-0.2-1.7-0.6c-1.3-1-1.7-2.8-0.7-4.2c0.5-0.7,1-1.4,1.5-2c1-1.3,2.9-1.5,4.2-0.5    c1.3,1,1.5,2.9,0.5,4.2c-0.5,0.6-0.9,1.2-1.4,1.8C24.2,36.7,23.3,37.1,22.3,37.1z"/></g><g><circle class="st3" cx="45" cy="51" r="8"/></g><g><circle class="st3" cx="83" cy="51" r="8"/></g><g><path class="st1" d="M94,93H34c-5.5,0-10-4.5-10-10v0c0-5.5,4.5-10,10-10h60c5.5,0,10,4.5,10,10v0C104,88.5,99.5,93,94,93z"/></g></g></svg>