<?xml version="1.0" ?><svg id="Layer_1" style="enable-background:new 0 0 128 128;" version="1.1" viewBox="0 0 128 128" xml:space="preserve" xmlns="http://www.w3.org/2000/svg" xmlns:xlink="http://www.w3.org/1999/xlink"><style type="text/css">
	.st0{display:none;fill:#D6D5BD;}
	.st1{fill:#FFFFFF;}
	.st2{fill:#E4E8ED;}
	.st3{fill:#444B54;}
	.st4{fill:#FE4365;}
	.st5{fill:#5BF979;}
	.st6{fill:#006475;}
	.st7{fill:#00B1FE;}
	.st8{opacity:0.5;}
	.st9{fill:#FFB480;}
	.st10{fill:#FF8B80;}
	.st11{fill:#70F0FF;}
	.st12{fill:#00BED9;}
	.st13{fill:#FF2A66;}
	.st14{fill:#A3B859;}
	.st15{fill:#64AD50;}
	.st16{fill:#FF5366;}
	.st17{fill:#BBB798;}
	.st18{fill:#79B9AF;}
	.st19{fill:#39BCC5;}
</style><g><g><circle class="st9" cx="64" cy="64" r="60"/></g><g><ellipse class="st3" cx="45" cy="51" rx="8" ry="10"/></g><g><ellipse class="st3" cx="83" cy="51" rx="8" ry="10"/></g><path class="st3" d="M77.4,89.9c2.9-2,4.6-4.8,4.6-8c0-6.2-6.6-11-15-11c-1.7,0-3,1.3-3,3s1.3,3,3,3c5.3,0,9,2.6,9,5s-3.7,5-9,5   c-1.7,0-3,1.3-3,3s1.3,3,3,3c5.3,0,9,2.6,9,5s-3.7,5-9,5c-1.7,0-3,1.3-3,3s1.3,3,3,3c8.4,0,15-4.8,15-11   C82,94.7,80.2,91.9,77.4,89.9z"/><g><path class="st1" d="M34.7,25.9c-0.9,0-1.9-0.4-2.5-1.3c-0.9-1.4-0.6-3.2,0.7-4.2c9.1-6.4,19.9-9.8,31-9.8c1.7,0,3,1.3,3,3    s-1.3,3-3,3c-9.9,0-19.5,3-27.6,8.7C35.9,25.7,35.3,25.9,34.7,25.9z"/></g><g><path class="st1" d="M22.3,38.1c-0.6,0-1.2-0.2-1.7-0.6c-1.3-1-1.7-2.8-0.7-4.2c0.5-0.7,1-1.4,1.5-2c1-1.3,2.9-1.5,4.2-0.5    c1.3,1,1.5,2.9,0.5,4.2c-0.5,0.6-0.9,1.2-1.4,1.8C24.2,37.7,23.2,38.1,22.3,38.1z"/></g></g></svg>