<?xml version="1.0" ?><svg id="Layer_1" style="enable-background:new 0 0 128 128;" version="1.1" viewBox="0 0 128 128" xml:space="preserve" xmlns="http://www.w3.org/2000/svg" xmlns:xlink="http://www.w3.org/1999/xlink"><style type="text/css">
	.st0{display:none;fill:#D6D5BD;}
	.st1{fill:#FFFFFF;}
	.st2{fill:#E4E8ED;}
	.st3{fill:#444B54;}
	.st4{fill:#FE4365;}
	.st5{fill:#5BF979;}
	.st6{fill:#006475;}
	.st7{fill:#00B1FE;}
	.st8{opacity:0.5;}
	.st9{fill:#FFB480;}
	.st10{fill:#FF8B80;}
	.st11{fill:#70F0FF;}
	.st12{fill:#00BED9;}
	.st13{fill:#FF2A66;}
	.st14{fill:#A3B859;}
	.st15{fill:#64AD50;}
	.st16{fill:#FF5366;}
	.st17{fill:#BBB798;}
	.st18{fill:#79B9AF;}
	.st19{fill:#39BCC5;}
</style><rect class="st0" height="1793" width="1689" x="-1247" y="-1651"/><g><g><circle class="st9" cx="64" cy="64" r="60"/></g><g><path class="st1" d="M34.7,25.9c-0.9,0-1.9-0.4-2.5-1.3c-0.9-1.4-0.6-3.2,0.7-4.2c9.1-6.4,19.9-9.8,31-9.8c1.7,0,3,1.3,3,3    s-1.3,3-3,3c-9.9,0-19.5,3-27.6,8.7C35.9,25.7,35.3,25.9,34.7,25.9z"/></g><g><path class="st1" d="M22.3,38.1c-0.6,0-1.2-0.2-1.7-0.6c-1.3-1-1.7-2.8-0.7-4.2c0.5-0.7,1-1.4,1.5-2c1-1.3,2.9-1.5,4.2-0.5    c1.3,1,1.5,2.9,0.5,4.2c-0.5,0.6-0.9,1.2-1.4,1.8C24.2,37.7,23.2,38.1,22.3,38.1z"/></g><g><path class="st3" d="M24.6,50.6c-0.6,0-1.3-0.2-1.9-0.6c-1.3-1-1.5-2.9-0.5-4.2C27.5,39,35.4,34.7,44,34c1.6-0.1,3.1,1.1,3.2,2.7    c0.1,1.7-1.1,3.1-2.7,3.2c-6.9,0.6-13.3,4-17.6,9.5C26.3,50.2,25.4,50.6,24.6,50.6z"/></g><g><path class="st3" d="M39.2,68.6c-3,0-6-0.4-8.9-1.3c-1.6-0.5-2.5-2.2-2-3.7c0.5-1.6,2.1-2.5,3.7-2c6.5,2,13.7,1.1,19.6-2.3    c1.4-0.8,3.3-0.3,4.1,1.1c0.8,1.4,0.3,3.3-1.1,4.1C50,67.2,44.6,68.6,39.2,68.6z"/></g><g><path class="st3" d="M103.4,50.6c-0.9,0-1.8-0.4-2.4-1.1C96.8,44,90.4,40.6,83.5,40c-1.7-0.1-2.9-1.6-2.7-3.2s1.6-2.9,3.2-2.7    c8.5,0.7,16.5,5,21.8,11.7c1,1.3,0.8,3.2-0.5,4.2C104.7,50.4,104.1,50.6,103.4,50.6z"/></g><g><path class="st3" d="M88.8,68.6c-5.4,0-10.8-1.4-15.5-4.2c-1.4-0.8-1.9-2.7-1.1-4.1c0.8-1.4,2.7-1.9,4.1-1.1    c5.9,3.4,13.1,4.3,19.6,2.3c1.6-0.5,3.3,0.4,3.7,2c0.5,1.6-0.4,3.3-2,3.7C94.8,68.2,91.8,68.6,88.8,68.6z"/></g><g><path class="st3" d="M64,103c-6.6,0-12.6-3.7-15.7-9.6c-0.8-1.5-0.2-3.3,1.3-4c1.5-0.8,3.3-0.2,4,1.3c2.1,3.9,6,6.4,10.3,6.4    s8.3-2.4,10.3-6.4c0.8-1.5,2.6-2,4-1.3s2,2.6,1.3,4C76.6,99.3,70.6,103,64,103z"/></g></g></svg>