<?xml version="1.0" ?><svg id="Layer_1" style="enable-background:new 0 0 128 128;" version="1.1" viewBox="0 0 128 128" xml:space="preserve" xmlns="http://www.w3.org/2000/svg" xmlns:xlink="http://www.w3.org/1999/xlink"><style type="text/css">
	.st0{display:none;fill:#D6D5BD;}
	.st1{fill:#FFFFFF;}
	.st2{fill:#E4E8ED;}
	.st3{fill:#444B54;}
	.st4{fill:#FE4365;}
	.st5{fill:#5BF979;}
	.st6{fill:#006475;}
	.st7{fill:#00B1FE;}
	.st8{opacity:0.5;}
	.st9{fill:#FFB480;}
	.st10{fill:#FF8B80;}
	.st11{fill:#70F0FF;}
	.st12{fill:#00BED9;}
	.st13{fill:#FF2A66;}
	.st14{fill:#A3B859;}
	.st15{fill:#64AD50;}
	.st16{fill:#FF5366;}
	.st17{fill:#BBB798;}
	.st18{fill:#79B9AF;}
	.st19{fill:#39BCC5;}
</style><rect class="st0" height="1793" width="1689" x="-1069" y="-1473"/><g><g><circle class="st9" cx="64" cy="63" r="60"/></g><g><circle class="st10" cx="30" cy="84" r="10"/></g><g><circle class="st10" cx="98" cy="84" r="10"/></g><g><path class="st1" d="M34.7,24.9c-0.9,0-1.9-0.4-2.5-1.3c-0.9-1.4-0.6-3.2,0.7-4.2c9.1-6.4,19.9-9.8,31-9.8c1.7,0,3,1.3,3,3    s-1.3,3-3,3c-9.9,0-19.5,3-27.6,8.7C35.9,24.7,35.3,24.9,34.7,24.9z"/></g><g><path class="st1" d="M22.3,37.1c-0.6,0-1.2-0.2-1.7-0.6c-1.3-1-1.7-2.8-0.7-4.2c0.5-0.7,1-1.4,1.5-2c1-1.3,2.9-1.5,4.2-0.5    c1.3,1,1.5,2.9,0.5,4.2c-0.5,0.6-0.9,1.2-1.4,1.8C24.2,36.7,23.2,37.1,22.3,37.1z"/></g><g><path class="st3" d="M102.6,46.3c-0.6,0-1.2-0.2-1.7-0.5c-5.7-3.9-12.9-5.2-19.6-3.6c-1.6,0.4-3.2-0.6-3.6-2.2    c-0.4-1.6,0.6-3.2,2.2-3.6c8.4-2,17.2-0.3,24.4,4.4c1.4,0.9,1.7,2.8,0.8,4.2C104.6,45.8,103.6,46.3,102.6,46.3z"/></g><g><path class="st3" d="M64,103c-6.6,0-12.6-3.7-15.7-9.6c-0.8-1.5-0.2-3.3,1.3-4c1.5-0.8,3.3-0.2,4,1.3c2.1,3.9,6,6.4,10.3,6.4    s8.3-2.4,10.3-6.4c0.8-1.5,2.6-2,4-1.3c1.5,0.8,2,2.6,1.3,4C76.6,99.3,70.6,103,64,103z"/></g><g><path class="st3" d="M25.4,46.3c-1,0-1.9-0.5-2.5-1.3c-0.9-1.4-0.6-3.2,0.8-4.2c7.1-4.8,16-6.4,24.4-4.4c1.6,0.4,2.6,2,2.2,3.6    c-0.4,1.6-2,2.6-3.6,2.2c-6.7-1.6-13.9-0.3-19.6,3.6C26.5,46.1,25.9,46.3,25.4,46.3z"/></g><g><path class="st3" d="M34.4,67.4c-1,0-1.9-0.5-2.5-1.3c-0.9-1.4-0.6-3.2,0.8-4.2c6-4,13.4-5.3,20.4-3.7c1.6,0.4,2.6,2,2.2,3.6    c-0.4,1.6-2,2.6-3.6,2.2c-5.4-1.3-11.1-0.2-15.6,2.9C35.5,67.3,34.9,67.4,34.4,67.4z"/></g><g><path class="st3" d="M93.6,67.4c-0.6,0-1.2-0.2-1.7-0.5c-4.6-3.1-10.3-4.1-15.6-2.9c-1.6,0.4-3.2-0.6-3.6-2.2    c-0.4-1.6,0.6-3.2,2.2-3.6c7-1.6,14.4-0.3,20.4,3.7c1.4,0.9,1.7,2.8,0.8,4.2C95.5,67,94.6,67.4,93.6,67.4z"/></g></g></svg>